HIERARCHY
ROOT hip
{
  OFFSET 0 90.174 2.4664
  CHANNELS 6 Xposition Yposition Zposition Zrotation Xrotation Yrotation
  JOINT abdomen
  {
    OFFSET 0 -1.186 -1.5018
    CHANNELS 6 Xposition Yposition Zposition Zrotation Xrotation Yrotation
    JOINT abdomen2
    {
      OFFSET 0 9.964 0.2134
      CHANNELS 6 Xposition Yposition Zposition Zrotation Xrotation Yrotation
      JOINT chest
      {
        OFFSET 0 13.134 -3.2573
        CHANNELS 6 Xposition Yposition Zposition Zrotation Xrotation Yrotation
        JOINT neck
        {
          OFFSET 0 20.686 -1.6905
          CHANNELS 6 Xposition Yposition Zposition Zrotation Xrotation Yrotation
          JOINT head
          {
            OFFSET 0 7.238 -0.1237
            CHANNELS 6 Xposition Yposition Zposition Zrotation Xrotation Yrotation
            End Site
            {
              OFFSET 0 0 0
            }
          }
        }
        JOINT lCollar
        {
          OFFSET 1.7069 20.075 5.0056
          CHANNELS 6 Xposition Yposition Zposition Zrotation Xrotation Yrotation
          JOINT lShldr
          {
            OFFSET 13.6458 -0.047 -4.849
            CHANNELS 6 Xposition Yposition Zposition Zrotation Xrotation Yrotation
            JOINT lForeArm
            {
              OFFSET 28.3255 -0.9759 2.2888
              CHANNELS 6 Xposition Yposition Zposition Zrotation Xrotation Yrotation
              JOINT lHand
              {
                OFFSET 22.1583 -0.53 10.8316
                CHANNELS 6 Xposition Yposition Zposition Zrotation Xrotation Yrotation
                JOINT lThumb1
                {
                  OFFSET 0.786 0.112 2.5817
                  CHANNELS 6 Xposition Yposition Zposition Zrotation Xrotation Yrotation
                  JOINT lThumb2
                  {
                    OFFSET 0.3601 -0.878 4.2331
                    CHANNELS 6 Xposition Yposition Zposition Zrotation Xrotation Yrotation
                    JOINT lThumb2_End
                    {
                      OFFSET 1.8127 -1.216 2.2227
                      CHANNELS 6 Xposition Yposition Zposition Zrotation Xrotation Yrotation
                      End Site
                      {
                        OFFSET 0.0181 -0.0122 0.0222
                      }
                    }
                  }
                }
                JOINT lCarpal1
                {
                  OFFSET 0.9571 1.114 1.7695
                  CHANNELS 6 Xposition Yposition Zposition Zrotation Xrotation Yrotation
                  JOINT lIndex1
                  {
                    OFFSET 4.1246 0.487 4.1451
                    CHANNELS 6 Xposition Yposition Zposition Zrotation Xrotation Yrotation
                    JOINT lIndex2
                    {
                      OFFSET 3.4052 -1.454 2.7682
                      CHANNELS 6 Xposition Yposition Zposition Zrotation Xrotation Yrotation
                      JOINT lIndex2_End
                      {
                        OFFSET 1.4531 -1.795 1.2713
                        CHANNELS 6 Xposition Yposition Zposition Zrotation Xrotation Yrotation
                        End Site
                        {
                          OFFSET 0.0145 -0.0179 0.0127
                        }
                      }
                    }
                  }
                  JOINT lMid1
                  {
                    OFFSET 5.6954 0.21 2.1184
                    CHANNELS 6 Xposition Yposition Zposition Zrotation Xrotation Yrotation
                    JOINT lMid2
                    {
                      OFFSET 3.9766 -1.54 2.3863
                      CHANNELS 6 Xposition Yposition Zposition Zrotation Xrotation Yrotation
                      JOINT lMid2_End
                      {
                        OFFSET 1.4042 -1.926 1.125
                        CHANNELS 6 Xposition Yposition Zposition Zrotation Xrotation Yrotation
                        End Site
                        {
                          OFFSET 0.014 -0.0193 0.0113
                        }
                      }
                    }
                  }
                }
                JOINT lCarpal2
                {
                  OFFSET 2.0956 0.66 -0.3894
                  CHANNELS 6 Xposition Yposition Zposition Zrotation Xrotation Yrotation
                  JOINT lRing1
                  {
                    OFFSET 5.0395 -0.09 2.4971
                    CHANNELS 6 Xposition Yposition Zposition Zrotation Xrotation Yrotation
                    JOINT lRing2
                    {
                      OFFSET 3.7921 -1.552 1.4806
                      CHANNELS 6 Xposition Yposition Zposition Zrotation Xrotation Yrotation
                      JOINT lRing2_End
                      {
                        OFFSET 1.4655 -1.808 0.9609
                        CHANNELS 6 Xposition Yposition Zposition Zrotation Xrotation Yrotation
                        End Site
                        {
                          OFFSET 0.0147 -0.0181 0.0096
                        }
                      }
                    }
                  }
                  JOINT lPinky1
                  {
                    OFFSET 4.9141 -1.269 0.3591
                    CHANNELS 6 Xposition Yposition Zposition Zrotation Xrotation Yrotation
                    JOINT lPinky2
                    {
                      OFFSET 3.1477 -1.685 0.8462
                      CHANNELS 6 Xposition Yposition Zposition Zrotation Xrotation Yrotation
                      JOINT lPinky2_End
                      {
                        OFFSET 0.8055 -1.585 0.7955
                        CHANNELS 6 Xposition Yposition Zposition Zrotation Xrotation Yrotation
                        End Site
                        {
                          OFFSET 0.0081 -0.0158 0.008
                        }
                      }
                    }
                  }
                }
              }
            }
          }
        }
        JOINT rCollar
        {
          OFFSET -1.7069 20.075 5.0056
          CHANNELS 6 Xposition Yposition Zposition Zrotation Xrotation Yrotation
          JOINT rShldr
          {
            OFFSET -13.6458 -0.047 -4.849
            CHANNELS 6 Xposition Yposition Zposition Zrotation Xrotation Yrotation
            JOINT rForeArm
            {
              OFFSET -28.3255 -0.9759 2.2888
              CHANNELS 6 Xposition Yposition Zposition Zrotation Xrotation Yrotation
              JOINT rHand
              {
                OFFSET -22.1583 -0.53 10.8316
                CHANNELS 6 Xposition Yposition Zposition Zrotation Xrotation Yrotation
                JOINT rThumb1
                {
                  OFFSET -0.786 0.112 2.5817
                  CHANNELS 6 Xposition Yposition Zposition Zrotation Xrotation Yrotation
                  JOINT rThumb2
                  {
                    OFFSET -0.3601 -0.878 4.2331
                    CHANNELS 6 Xposition Yposition Zposition Zrotation Xrotation Yrotation
                    JOINT rThumb2_End
                    {
                      OFFSET -1.8127 -1.216 2.2227
                      CHANNELS 6 Xposition Yposition Zposition Zrotation Xrotation Yrotation
                      End Site
                      {
                        OFFSET -0.0181 -0.0122 0.0222
                      }
                    }
                  }
                }
                JOINT rCarpal1
                {
                  OFFSET -0.9571 1.114 1.7695
                  CHANNELS 6 Xposition Yposition Zposition Zrotation Xrotation Yrotation
                  JOINT rIndex1
                  {
                    OFFSET -4.1246 0.487 4.1451
                    CHANNELS 6 Xposition Yposition Zposition Zrotation Xrotation Yrotation
                    JOINT rIndex2
                    {
                      OFFSET -3.4052 -1.454 2.7682
                      CHANNELS 6 Xposition Yposition Zposition Zrotation Xrotation Yrotation
                      JOINT rIndex2_End
                      {
                        OFFSET -1.4531 -1.795 1.2713
                        CHANNELS 6 Xposition Yposition Zposition Zrotation Xrotation Yrotation
                        End Site
                        {
                          OFFSET -0.0145 -0.018 0.0127
                        }
                      }
                    }
                  }
                  JOINT rMid1
                  {
                    OFFSET -5.6954 0.21 2.1184
                    CHANNELS 6 Xposition Yposition Zposition Zrotation Xrotation Yrotation
                    JOINT rMid2
                    {
                      OFFSET -3.9766 -1.54 2.3863
                      CHANNELS 6 Xposition Yposition Zposition Zrotation Xrotation Yrotation
                      JOINT rMid2_End
                      {
                        OFFSET -1.4042 -1.926 1.125
                        CHANNELS 6 Xposition Yposition Zposition Zrotation Xrotation Yrotation
                        End Site
                        {
                          OFFSET -0.014 -0.0193 0.0113
                        }
                      }
                    }
                  }
                }
                JOINT rCarpal2
                {
                  OFFSET -2.0956 0.66 -0.3894
                  CHANNELS 6 Xposition Yposition Zposition Zrotation Xrotation Yrotation
                  JOINT rRing1
                  {
                    OFFSET -5.0395 -0.09 2.4971
                    CHANNELS 6 Xposition Yposition Zposition Zrotation Xrotation Yrotation
                    JOINT rRing2
                    {
                      OFFSET -3.7921 -1.552 1.4806
                      CHANNELS 6 Xposition Yposition Zposition Zrotation Xrotation Yrotation
                      JOINT rRing2_End
                      {
                        OFFSET -1.4655 -1.808 0.9609
                        CHANNELS 6 Xposition Yposition Zposition Zrotation Xrotation Yrotation
                        End Site
                        {
                          OFFSET -0.0147 -0.0181 0.0096
                        }
                      }
                    }
                  }
                  JOINT rPinky1
                  {
                    OFFSET -4.9141 -1.269 0.3592
                    CHANNELS 6 Xposition Yposition Zposition Zrotation Xrotation Yrotation
                    JOINT rPinky2
                    {
                      OFFSET -3.1477 -1.685 0.8462
                      CHANNELS 6 Xposition Yposition Zposition Zrotation Xrotation Yrotation
                      JOINT rPinky2_End
                      {
                        OFFSET -0.8055 -1.585 0.7955
                        CHANNELS 6 Xposition Yposition Zposition Zrotation Xrotation Yrotation
                        End Site
                        {
                          OFFSET -0.0081 -0.0158 0.008
                        }
                      }
                    }
                  }
                }
              }
            }
          }
        }
      }
    }
  }
  JOINT lThigh
  {
    OFFSET 8.367 -8.2066 0.5982
    CHANNELS 6 Xposition Yposition Zposition Zrotation Xrotation Yrotation
    JOINT lShin
    {
      OFFSET 2.1923 -43.463 -0.4932
      CHANNELS 6 Xposition Yposition Zposition Zrotation Xrotation Yrotation
      JOINT lFoot
      {
        OFFSET 0.7333 -45.8593 -2.6451
        CHANNELS 6 Xposition Yposition Zposition Zrotation Xrotation Yrotation
        End Site
        {
          OFFSET 2.6618 -4.2699 12.3931
        }
      }
    }
  }
  JOINT rThigh
  {
    OFFSET -8.367 -8.2066 0.5982
    CHANNELS 6 Xposition Yposition Zposition Zrotation Xrotation Yrotation
    JOINT rShin
    {
      OFFSET -2.1923 -43.463 -0.4931
      CHANNELS 6 Xposition Yposition Zposition Zrotation Xrotation Yrotation
      JOINT rFoot
      {
        OFFSET -0.7333 -45.8593 -2.6451
        CHANNELS 6 Xposition Yposition Zposition Zrotation Xrotation Yrotation
        End Site
        {
          OFFSET -2.6618 -4.2699 12.3931
        }
      }
    }
  }
}
MOTION
Frames:	4
Frame Time:	0.0333333
0 90.174 2.4664 0 0 -0 0 -1.186 -1.5018 0 0 -0 0 9.964 0.2134 0 0 -0 0 13.134 -3.2573 0 0 -0 0 20.686 -1.6905 0 0 -0 0 7.238 -0.1237 0 0 -0 1.7069 20.075 5.0056 0 0 -0 13.6458 -0.047 -4.849 1.66051 0.0835086 5.75766 28.3255 -0.9759 2.2888 -0.0175111 0.895433 15.7816 22.1583 -0.53 10.8316 7.95139e-016 -1.98785e-016 -0 0.786 0.112 2.5817 5.46658e-016 -3.97569e-016 -0 0.3601 -0.878 4.2331 5.96354e-016 0 -0 1.8127 -1.216 2.2227 3.97569e-016 1.98785e-016 9.54166e-015 0.9571 1.114 1.7695 1.49089e-016 -3.97569e-016 -0 4.1246 0.487 4.1451 6.4605e-016 0 3.18055e-015 3.4052 -1.454 2.7682 5.96354e-016 0 3.18055e-015 1.4531 -1.795 1.2713 8.94531e-016 -1.98785e-016 6.36111e-015 5.6954 0.21 2.1184 6.4605e-016 0 3.18055e-015 3.9766 -1.54 2.3863 5.96354e-016 0 3.18055e-015 1.4042 -1.926 1.125 8.94531e-016 -1.98785e-016 6.36111e-015 2.0956 0.66 -0.3894 1.49089e-016 -3.97569e-016 -0 5.0395 -0.09 2.4971 6.4605e-016 0 3.18055e-015 3.7921 -1.552 1.4806 5.96354e-016 0 3.18055e-015 1.4655 -1.808 0.9609 8.94531e-016 -1.98785e-016 6.36111e-015 4.9141 -1.269 0.3591 6.4605e-016 0 3.18055e-015 3.1477 -1.685 0.8462 5.96354e-016 0 3.18055e-015 0.8055 -1.585 0.7955 8.94531e-016 -1.98785e-016 6.36111e-015 -1.7069 20.075 5.0056 0 0 -0 -13.6458 -0.047 -4.849 -1.4496 0.0636048 -5.0245 -28.3255 -0.9759 2.2888 -1.74811 1.20616 -16.8394 -22.1583 -0.53 10.8316 -1.19271e-015 1.98785e-016 -3.18055e-015 -0.786 0.112 2.5817 -3.97569e-016 1.98785e-016 -3.18055e-015 -0.3601 -0.878 4.2331 -2.98177e-016 1.98785e-016 -3.18055e-015 -1.8127 -1.216 2.2227 -2.98177e-016 3.97569e-016 -0 -0.9571 1.114 1.7695 4.96962e-016 0 -6.36111e-015 -4.1246 0.487 4.1451 -9.93923e-017 3.97569e-016 -0 -3.4052 -1.454 2.7682 -8.94531e-016 5.96354e-016 -0 -1.4531 -1.795 1.2713 -3.97569e-016 3.97569e-016 -0 -5.6954 0.21 2.1184 -9.93923e-017 3.97569e-016 -0 -3.9766 -1.54 2.3863 -8.94531e-016 5.96354e-016 -0 -1.4042 -1.926 1.125 -3.97569e-016 3.97569e-016 -0 -2.0956 0.66 -0.3894 4.96962e-016 0 -6.36111e-015 -5.0395 -0.09 2.4971 -9.93923e-017 3.97569e-016 -0 -3.7921 -1.552 1.4806 -8.94531e-016 5.96354e-016 -0 -1.4655 -1.808 0.9609 -3.97569e-016 3.97569e-016 -0 -4.9141 -1.269 0.3592 -9.93923e-017 3.97569e-016 -0 -3.1477 -1.685 0.8462 -8.94531e-016 5.96354e-016 -0 -0.8055 -1.585 0.7955 -3.97569e-016 3.97569e-016 -0 8.367 -8.2066 0.5982 -4.66115 -1.03232 0.120763 2.1923 -43.463 -0.4932 0.00990601 1.55097 0.177175 0.7333 -45.8593 -2.6451 4.65196 -0.54114 -0.255042 -8.367 -8.2066 0.5982 4.66115 -1.03222 -0.120763 -2.1923 -43.463 -0.4931 -0.00990459 1.5509 -0.177176 -0.7333 -45.8593 -2.6451 -4.65196 -0.541171 0.255041 
-1.70896 37.4962 -7.61058 132.698 -66.6673 -0.476482 -3.55271e-015 -1.186 -1.5018 -1.20957 -5.68202 -0.444728 3.55271e-015 9.964 0.2134 -2.48221 -11.3531 -1.01824 3.55271e-015 13.134 -3.2573 -2.48221 -11.3531 -1.01824 0 20.686 -1.6905 0.0197129 0.0729839 -0.00449362 3.55271e-015 7.238 -0.1237 -2.1784e-006 0.0135063 -2.05981e-006 1.7069 20.075 5.0056 -27.5372 -8.5594 9.2482 13.6458 -0.047 -4.849 -5.95361 15.562 -25.4377 28.3255 -0.9759 2.2888 42.1979 6.74804 -31.2064 22.1583 -0.53 10.8316 -20.6479 -34.2019 -3.5994 0.786 0.112 2.5817 3.70501e-007 8.20957e-008 -7.60965e-007 0.3601 -0.878 4.2331 3.70501e-007 8.20958e-008 -7.60965e-007 1.8127 -1.216 2.2227 3.70501e-007 8.20958e-008 -7.60965e-007 0.9571 1.114 1.7695 -1.59028e-015 9.54166e-015 1.59028e-015 4.1246 0.487 4.1451 3.70501e-007 8.20957e-008 -7.60965e-007 3.4052 -1.454 2.7682 3.70501e-007 8.20958e-008 -7.60965e-007 1.4531 -1.795 1.2713 3.70501e-007 8.20958e-008 -7.60965e-007 5.6954 0.21 2.1184 3.70501e-007 8.20957e-008 -7.60965e-007 3.9766 -1.54 2.3863 3.70501e-007 8.20958e-008 -7.60965e-007 1.4042 -1.926 1.125 3.70501e-007 8.20958e-008 -7.60965e-007 2.0956 0.66 -0.3894 -1.59028e-015 9.54166e-015 1.59028e-015 5.0395 -0.09 2.4971 3.70501e-007 8.20957e-008 -7.60965e-007 3.7921 -1.552 1.4806 3.70501e-007 8.20958e-008 -7.60965e-007 1.4655 -1.808 0.9609 3.70501e-007 8.20958e-008 -7.60965e-007 4.9141 -1.269 0.3591 3.70501e-007 8.20957e-008 -7.60965e-007 3.1477 -1.685 0.8462 3.70501e-007 8.20958e-008 -7.60965e-007 0.8055 -1.585 0.7955 3.70501e-007 8.20958e-008 -7.60965e-007 -1.7069 20.075 5.0056 12.7754 2.66482 15.5657 -13.6458 -0.047 -4.849 -2.64368 3.83588 33.0109 -28.3255 -0.9759 2.2888 -1.44666 0.971461 -11.8303 -22.1583 -0.53 10.8316 -1.1809 -30.6216 -3.10556 -0.786 0.112 2.5817 1.98785e-015 3.18055e-015 -2.98177e-015 -0.3601 -0.878 4.2331 1.98785e-015 6.36111e-015 -2.68359e-015 -1.8127 -1.216 2.2227 1.19271e-015 3.18055e-015 -4.17448e-015 -0.9571 1.114 1.7695 1.19271e-015 -6.36111e-015 -4.96962e-016 -4.1246 0.487 4.1451 -3.77691e-015 6.36111e-015 4.96962e-016 -3.4052 -1.454 2.7682 1.39149e-015 9.54166e-015 -2.08724e-015 -1.4531 -1.795 1.2713 5.96354e-016 6.36111e-015 -2.88238e-015 -5.6954 0.21 2.1184 -3.77691e-015 6.36111e-015 4.96962e-016 -3.9766 -1.54 2.3863 1.39149e-015 9.54166e-015 -2.08724e-015 -1.4042 -1.926 1.125 5.96354e-016 6.36111e-015 -2.88238e-015 -2.0956 0.66 -0.3894 1.19271e-015 -6.36111e-015 -4.96962e-016 -5.0395 -0.09 2.4971 -3.77691e-015 6.36111e-015 4.96962e-016 -3.7921 -1.552 1.4806 1.39149e-015 9.54166e-015 -2.08724e-015 -1.4655 -1.808 0.9609 5.96354e-016 6.36111e-015 -2.88238e-015 -4.9141 -1.269 0.3592 -3.77691e-015 6.36111e-015 4.96962e-016 -3.1477 -1.685 0.8462 1.39149e-015 9.54166e-015 -2.08724e-015 -0.8055 -1.585 0.7955 5.96354e-016 6.36111e-015 -2.88238e-015 8.367 -8.2066 0.5982 116.529 -76.8549 130.961 2.1923 -43.463 -0.4932 -139.258 69.2222 106.304 0.7333 -45.8593 -2.6451 10.1308 31.3824 4.31778 -8.367 -8.2066 0.5982 -122.542 -75.238 -136.844 -2.1923 -43.463 -0.4931 137.135 70.055 -103.98 -0.7333 -45.8593 -2.6451 -6.08223 39.438 -4.28798 
-0.797703 23.7831 -7.07675 15.3856 -83.3257 -177.645 0 -1.186 -1.5018 -1.82604 -8.23575 -0.571827 0 9.964 0.2134 -3.79574 -16.4481 -1.43434 1.77636e-015 13.134 -3.2573 -3.79573 -16.4481 -1.43434 -1.77636e-015 20.686 -1.6905 -0.0677924 0.204021 0.0157398 1.77636e-015 7.238 -0.1237 -4.35372e-006 0.0745236 -5.55809e-007 1.7069 20.075 5.0056 -39.0138 -12.2317 13.5731 13.6458 -0.047 -4.849 -4.12971 18.6584 -40.5874 28.3255 -0.9759 2.2888 64.6154 2.23653 -50.9608 22.1583 -0.53 10.8316 -33.3739 -48.9139 -10.029 0.786 0.112 2.5817 -8.49289e-007 3.45758e-008 -3.16225e-006 0.3601 -0.878 4.2331 -6.47777e-007 1.2459e-006 9.57145e-007 1.8127 -1.216 2.2227 8.49289e-007 -3.45757e-008 3.16225e-006 0.9571 1.114 1.7695 1.59028e-015 -6.36111e-015 -3.18055e-015 4.1246 0.487 4.1451 -8.49289e-007 3.45758e-008 -3.16225e-006 3.4052 -1.454 2.7682 -6.47777e-007 1.2459e-006 9.57145e-007 1.4531 -1.795 1.2713 8.49289e-007 -3.45757e-008 3.16225e-006 5.6954 0.21 2.1184 -8.49289e-007 3.45758e-008 -3.16225e-006 3.9766 -1.54 2.3863 -6.47777e-007 1.2459e-006 9.57145e-007 1.4042 -1.926 1.125 8.49289e-007 -3.45757e-008 3.16225e-006 2.0956 0.66 -0.3894 1.59028e-015 -6.36111e-015 -3.18055e-015 5.0395 -0.09 2.4971 -8.49289e-007 3.45758e-008 -3.16225e-006 3.7921 -1.552 1.4806 -6.47777e-007 1.2459e-006 9.57145e-007 1.4655 -1.808 0.9609 8.49289e-007 -3.45757e-008 3.16225e-006 4.9141 -1.269 0.3591 -8.49289e-007 3.45758e-008 -3.16225e-006 3.1477 -1.685 0.8462 -6.47777e-007 1.2459e-006 9.57145e-007 0.8055 -1.585 0.7955 8.49289e-007 -3.45757e-008 3.16225e-006 -1.7069 20.075 5.0056 18.0603 3.70394 22.595 -13.6458 -0.047 -4.849 -4.5494 3.79848 50.0469 -28.3255 -0.9759 2.2888 -1.35963 0.884543 -9.33038 -22.1583 -0.53 10.8316 -1.99898 -44.7103 -2.93046 -0.786 0.112 2.5817 3.00465e-007 7.60261e-007 -2.43222e-007 -0.3601 -0.878 4.2331 -1.59028e-015 6.36111e-015 9.54166e-015 -1.8127 -1.216 2.2227 3.00465e-007 7.60261e-007 -2.43222e-007 -0.9571 1.114 1.7695 6.36111e-015 -1.59028e-015 3.18055e-015 -4.1246 0.487 4.1451 3.00465e-007 7.60261e-007 -2.43222e-007 -3.4052 -1.454 2.7682 -3.18055e-015 0 3.18055e-015 -1.4531 -1.795 1.2713 3.00465e-007 7.60261e-007 -2.43222e-007 -5.6954 0.21 2.1184 3.00465e-007 7.60261e-007 -2.43222e-007 -3.9766 -1.54 2.3863 -3.18055e-015 0 3.18055e-015 -1.4042 -1.926 1.125 3.00465e-007 7.60261e-007 -2.43222e-007 -2.0956 0.66 -0.3894 6.36111e-015 -1.59028e-015 3.18055e-015 -5.0395 -0.09 2.4971 3.00465e-007 7.60261e-007 -2.43222e-007 -3.7921 -1.552 1.4806 -3.18055e-015 0 3.18055e-015 -1.4655 -1.808 0.9609 3.00465e-007 7.60261e-007 -2.43222e-007 -4.9141 -1.269 0.3592 3.00465e-007 7.60261e-007 -2.43222e-007 -3.1477 -1.685 0.8462 -3.18055e-015 0 3.18055e-015 -0.8055 -1.585 0.7955 3.00465e-007 7.60261e-007 -2.43222e-007 8.367 -8.2066 0.5982 158.475 -38.5482 175.229 2.1923 -43.463 -0.4932 154.443 36.5403 148.507 0.7333 -45.8593 -2.6451 0.812406 48.2279 14.0742 -8.367 -8.2066 0.5982 -158.878 -38.1058 -175.485 -2.1923 -43.463 -0.4931 -155.909 35.2382 -147.745 -0.7333 -45.8593 -2.6451 3.05388 55.2033 -15.2619 
-0.0250703 26.9397 -7.75593 89.3125 -89.7452 -90.4204 -2.77556e-017 -1.186 -1.5018 -1.6855 -7.66853 -0.547655 0 9.964 0.2134 -3.49319 -15.3169 -1.34334 0 13.134 -3.2573 -3.49318 -15.3169 -1.34334 -8.88178e-016 20.686 -1.6905 -0.260216 0.393435 0.0608799 8.88178e-016 7.238 -0.1237 -3.11189e-006 0.183014 -2.04171e-007 1.7069 20.075 5.0056 -36.5132 -11.4307 12.5987 13.6458 -0.047 -4.849 -4.88025 18.4127 -36.9559 28.3255 -0.9759 2.2888 59.4338 3.43133 -47.0118 22.1583 -0.53 10.8316 -29.5293 -45.676 -7.90567 0.786 0.112 2.5817 -1.59028e-015 0 -3.18055e-015 0.3601 -0.878 4.2331 -2.73038e-007 6.91573e-007 4.17602e-007 1.8127 -1.216 2.2227 7.95139e-015 6.36111e-015 -3.18055e-015 0.9571 1.114 1.7695 -4.77083e-015 0 -0 4.1246 0.487 4.1451 -4.77083e-015 6.36111e-015 6.36111e-015 3.4052 -1.454 2.7682 -2.73038e-007 6.91573e-007 4.17602e-007 1.4531 -1.795 1.2713 -1.59028e-015 -6.36111e-015 3.18055e-015 5.6954 0.21 2.1184 -4.77083e-015 6.36111e-015 6.36111e-015 3.9766 -1.54 2.3863 -2.73038e-007 6.91573e-007 4.17602e-007 1.4042 -1.926 1.125 -1.59028e-015 -6.36111e-015 3.18055e-015 2.0956 0.66 -0.3894 -4.77083e-015 0 -0 5.0395 -0.09 2.4971 -4.77083e-015 6.36111e-015 6.36111e-015 3.7921 -1.552 1.4806 -2.73038e-007 6.91573e-007 4.17602e-007 1.4655 -1.808 0.9609 -1.59028e-015 -6.36111e-015 3.18055e-015 4.9141 -1.269 0.3591 -4.77083e-015 6.36111e-015 6.36111e-015 3.1477 -1.685 0.8462 -2.73038e-007 6.91573e-007 4.17602e-007 0.8055 -1.585 0.7955 -1.59028e-015 -6.36111e-015 3.18055e-015 -1.7069 20.075 5.0056 16.9092 3.48612 21.0311 -13.6458 -0.047 -4.849 -3.61752 3.96359 46.0272 -28.3255 -0.9759 2.2888 -1.50378 0.950918 -9.33869 -22.1583 -0.53 10.8316 -2.08993 -41.6624 -3.08937 -0.786 0.112 2.5817 6.36111e-015 -6.36111e-015 -6.36111e-015 -0.3601 -0.878 4.2331 -5.12304e-007 -1.48985e-006 6.34118e-007 -1.8127 -1.216 2.2227 3.18055e-015 6.36111e-015 -3.18055e-015 -0.9571 1.114 1.7695 7.95139e-015 -6.36111e-015 -6.36111e-015 -4.1246 0.487 4.1451 -1.59028e-015 -3.18055e-015 -0 -3.4052 -1.454 2.7682 -5.12304e-007 -1.48985e-006 6.34118e-007 -1.4531 -1.795 1.2713 -4.77083e-015 3.18055e-015 -0 -5.6954 0.21 2.1184 -1.59028e-015 -3.18055e-015 -0 -3.9766 -1.54 2.3863 -5.12304e-007 -1.48985e-006 6.34118e-007 -1.4042 -1.926 1.125 -4.77083e-015 3.18055e-015 -0 -2.0956 0.66 -0.3894 7.95139e-015 -6.36111e-015 -6.36111e-015 -5.0395 -0.09 2.4971 -1.59028e-015 -3.18055e-015 -0 -3.7921 -1.552 1.4806 -5.12304e-007 -1.48985e-006 6.34118e-007 -1.4655 -1.808 0.9609 -4.77083e-015 3.18055e-015 -0 -4.9141 -1.269 0.3592 -1.59028e-015 -3.18055e-015 -0 -3.1477 -1.685 0.8462 -5.12304e-007 -1.48985e-006 6.34118e-007 -0.8055 -1.585 0.7955 -4.77083e-015 3.18055e-015 -0 8.367 -8.2066 0.5982 154.652 -46.8015 172.354 2.1923 -43.463 -0.4932 162.978 45.9311 146.215 0.7333 -45.8593 -2.6451 3.78955 46.0901 11.1865 -8.367 -8.2066 0.5982 -154.855 -46.5488 -172.439 -2.1923 -43.463 -0.4931 -163.044 45.791 -146.081 -0.7333 -45.8593 -2.6451 0.679429 52.9778 -12.0459 
